<mxfile host="app.diagrams.net" agent="Mozilla/5.0 (Windows NT 10.0; Win64; x64) AppleWebKit/537.36 (KHTML, like Gecko) Chrome/138.0.0.0 Safari/537.36" version="28.0.7">
  <diagram name="Page-1" id="QjHIEXxBnPxZlc_6jST1">
    <mxGraphModel dx="3039" dy="849" grid="1" gridSize="10" guides="1" tooltips="1" connect="1" arrows="1" fold="1" page="1" pageScale="1" pageWidth="583" pageHeight="827" math="0" shadow="0">
      <root>
        <mxCell id="0" />
        <mxCell id="1" parent="0" />
        <mxCell id="dsbZJy17aMEZbUW5SvcQ-66" value="City" style="swimlane;fontStyle=1;align=center;verticalAlign=top;childLayout=stackLayout;horizontal=1;startSize=26;horizontalStack=0;resizeParent=1;resizeParentMax=0;resizeLast=0;collapsible=1;marginBottom=0;whiteSpace=wrap;html=1;" parent="1" vertex="1">
          <mxGeometry x="-466" y="113" width="180" height="280" as="geometry" />
        </mxCell>
        <mxCell id="dsbZJy17aMEZbUW5SvcQ-67" value="+ name: str&lt;div&gt;+ arrivals: int&lt;/div&gt;&lt;div&gt;+ bonheur: int&lt;/div&gt;&lt;div&gt;+ building_list: list(Building)&lt;/div&gt;&lt;div&gt;+ stock: dict()&lt;/div&gt;" style="text;strokeColor=none;fillColor=none;align=left;verticalAlign=top;spacingLeft=4;spacingRight=4;overflow=hidden;rotatable=0;points=[[0,0.5],[1,0.5]];portConstraint=eastwest;whiteSpace=wrap;html=1;" parent="dsbZJy17aMEZbUW5SvcQ-66" vertex="1">
          <mxGeometry y="26" width="180" height="84" as="geometry" />
        </mxCell>
        <mxCell id="dsbZJy17aMEZbUW5SvcQ-68" value="" style="line;strokeWidth=1;fillColor=none;align=left;verticalAlign=middle;spacingTop=-1;spacingLeft=3;spacingRight=3;rotatable=0;labelPosition=right;points=[];portConstraint=eastwest;strokeColor=inherit;" parent="dsbZJy17aMEZbUW5SvcQ-66" vertex="1">
          <mxGeometry y="110" width="180" height="8" as="geometry" />
        </mxCell>
        <mxCell id="dsbZJy17aMEZbUW5SvcQ-69" value="&lt;div&gt;+ population()&lt;/div&gt;&lt;div&gt;+ happiness()&lt;/div&gt;&lt;div&gt;+ add_building(building)&lt;/div&gt;&lt;div&gt;&lt;div&gt;+ produce_ressources()&lt;/div&gt;&lt;div&gt;&lt;/div&gt;&lt;/div&gt;&lt;div&gt;&lt;div&gt;+ next_turn()&lt;/div&gt;&lt;div&gt;&lt;span style=&quot;background-color: transparent; color: light-dark(rgb(0, 0, 0), rgb(255, 255, 255));&quot;&gt;+ add_inhabitant(inhabitant)&lt;/span&gt;&lt;/div&gt;&lt;/div&gt;&lt;div&gt;&lt;span style=&quot;background-color: transparent; color: light-dark(rgb(0, 0, 0), rgb(255, 255, 255));&quot;&gt;+ add_random_inhabitants(count)&lt;/span&gt;&lt;/div&gt;&lt;div&gt;+ create_and_add_random()&lt;/div&gt;&lt;div&gt;&lt;br&gt;&lt;/div&gt;&lt;div&gt;&lt;br&gt;&lt;/div&gt;" style="text;strokeColor=none;fillColor=none;align=left;verticalAlign=top;spacingLeft=4;spacingRight=4;overflow=hidden;rotatable=0;points=[[0,0.5],[1,0.5]];portConstraint=eastwest;whiteSpace=wrap;html=1;" parent="dsbZJy17aMEZbUW5SvcQ-66" vertex="1">
          <mxGeometry y="118" width="180" height="162" as="geometry" />
        </mxCell>
        <mxCell id="dsbZJy17aMEZbUW5SvcQ-70" value="&lt;p style=&quot;margin:0px;margin-top:4px;text-align:center;&quot;&gt;&lt;i&gt;&amp;lt;&amp;lt;Enum&amp;gt;&amp;gt;&lt;/i&gt;&lt;br&gt;&lt;b&gt;BuildingType&lt;/b&gt;&lt;/p&gt;&lt;hr size=&quot;1&quot; style=&quot;border-style:solid;&quot;&gt;&lt;p style=&quot;margin:0px;margin-left:4px;&quot;&gt;+ housing&lt;br&gt;+ entertainment&lt;/p&gt;&lt;p style=&quot;margin:0px;margin-left:4px;&quot;&gt;+ production&lt;/p&gt;" style="verticalAlign=top;align=left;overflow=fill;html=1;whiteSpace=wrap;" parent="1" vertex="1">
          <mxGeometry x="104" y="113" width="160" height="140" as="geometry" />
        </mxCell>
        <mxCell id="dsbZJy17aMEZbUW5SvcQ-71" value="House" style="swimlane;fontStyle=1;align=center;verticalAlign=top;childLayout=stackLayout;horizontal=1;startSize=26;horizontalStack=0;resizeParent=1;resizeParentMax=0;resizeLast=0;collapsible=1;marginBottom=0;whiteSpace=wrap;html=1;" parent="1" vertex="1">
          <mxGeometry x="-256" y="313" width="160" height="52" as="geometry" />
        </mxCell>
        <mxCell id="dsbZJy17aMEZbUW5SvcQ-72" value="+ list_hab: list()" style="text;strokeColor=none;fillColor=none;align=left;verticalAlign=top;spacingLeft=4;spacingRight=4;overflow=hidden;rotatable=0;points=[[0,0.5],[1,0.5]];portConstraint=eastwest;whiteSpace=wrap;html=1;fontStyle=0" parent="dsbZJy17aMEZbUW5SvcQ-71" vertex="1">
          <mxGeometry y="26" width="160" height="26" as="geometry" />
        </mxCell>
        <mxCell id="dsbZJy17aMEZbUW5SvcQ-73" value="Park" style="swimlane;fontStyle=1;align=center;verticalAlign=top;childLayout=stackLayout;horizontal=1;startSize=26;horizontalStack=0;resizeParent=1;resizeParentMax=0;resizeLast=0;collapsible=1;marginBottom=0;whiteSpace=wrap;html=1;" parent="1" vertex="1">
          <mxGeometry x="-76" y="313" width="160" height="52" as="geometry" />
        </mxCell>
        <mxCell id="dsbZJy17aMEZbUW5SvcQ-74" value="+ list_homeless: list()" style="text;strokeColor=none;fillColor=none;align=left;verticalAlign=top;spacingLeft=4;spacingRight=4;overflow=hidden;rotatable=0;points=[[0,0.5],[1,0.5]];portConstraint=eastwest;whiteSpace=wrap;html=1;fontStyle=0" parent="dsbZJy17aMEZbUW5SvcQ-73" vertex="1">
          <mxGeometry y="26" width="160" height="26" as="geometry" />
        </mxCell>
        <mxCell id="dsbZJy17aMEZbUW5SvcQ-75" value="Factory" style="swimlane;fontStyle=1;align=center;verticalAlign=top;childLayout=stackLayout;horizontal=1;startSize=26;horizontalStack=0;resizeParent=1;resizeParentMax=0;resizeLast=0;collapsible=1;marginBottom=0;whiteSpace=wrap;html=1;" parent="1" vertex="1">
          <mxGeometry x="104" y="313" width="160" height="52" as="geometry" />
        </mxCell>
        <mxCell id="dsbZJy17aMEZbUW5SvcQ-76" value="+ prod()" style="text;strokeColor=none;fillColor=none;align=left;verticalAlign=top;spacingLeft=4;spacingRight=4;overflow=hidden;rotatable=0;points=[[0,0.5],[1,0.5]];portConstraint=eastwest;whiteSpace=wrap;html=1;fontStyle=0" parent="dsbZJy17aMEZbUW5SvcQ-75" vertex="1">
          <mxGeometry y="26" width="160" height="26" as="geometry" />
        </mxCell>
        <mxCell id="dsbZJy17aMEZbUW5SvcQ-77" value="&lt;b&gt;Inhabitant&lt;/b&gt;" style="swimlane;fontStyle=0;childLayout=stackLayout;horizontal=1;startSize=26;fillColor=none;horizontalStack=0;resizeParent=1;resizeParentMax=0;resizeLast=0;collapsible=1;marginBottom=0;whiteSpace=wrap;html=1;" parent="1" vertex="1">
          <mxGeometry x="-456" y="415" width="160" height="300" as="geometry" />
        </mxCell>
        <mxCell id="dsbZJy17aMEZbUW5SvcQ-78" value="Extends" style="endArrow=block;endSize=16;endFill=0;html=1;rounded=0;exitX=0.5;exitY=0;exitDx=0;exitDy=0;entryX=0.25;entryY=1;entryDx=0;entryDy=0;" parent="dsbZJy17aMEZbUW5SvcQ-77" edge="1">
          <mxGeometry width="160" relative="1" as="geometry">
            <mxPoint x="280" y="177" as="sourcePoint" />
            <mxPoint x="317.5" y="110" as="targetPoint" />
          </mxGeometry>
        </mxCell>
        <mxCell id="dsbZJy17aMEZbUW5SvcQ-79" value="&lt;div&gt;+ name: st&lt;span style=&quot;background-color: transparent; color: light-dark(rgb(0, 0, 0), rgb(255, 255, 255));&quot;&gt;r&lt;/span&gt;&lt;/div&gt;&lt;div&gt;&lt;span style=&quot;background-color: transparent; color: light-dark(rgb(0, 0, 0), rgb(255, 255, 255));&quot;&gt;+ age: int&lt;/span&gt;&lt;span style=&quot;background-color: transparent; text-wrap-mode: nowrap; color: rgba(0, 0, 0, 0); font-family: monospace; font-size: 0px;&quot;&gt;%3CmxGraphModel%3E%3Croot%3E%3CmxCell%20id%3D%220%22%2F%3E%3CmxCell%20id%3D%221%22%20parent%3D%220%22%2F%3E%3CmxCell%20id%3D%222%22%20value%3D%22%2B%20age%3A%20int%22%20style%3D%22text%3BstrokeColor%3Dnone%3BfillColor%3Dnone%3Balign%3Dleft%3BverticalAlign%3Dtop%3BspacingLeft%3D4%3BspacingRight%3D4%3Boverflow%3Dhidden%3Brotatable%3D0%3Bpoints%3D%5B%5B0%2C0.5%5D%2C%5B1%2C0.5%5D%5D%3BportConstraint%3Deastwest%3BwhiteSpace%3Dwrap%3Bhtml%3D1%3B%22%20vertex%3D%221%22%20parent%3D%221%22%3E%3CmxGeometry%20x%3D%22-80%22%20y%3D%22518%22%20width%3D%22160%22%20height%3D%2226%22%20as%3D%22geometry%22%2F%3E%3C%2FmxCell%3E%3C%2Froot%3E%3C%2FmxGraphModel%3&lt;/span&gt;&lt;span style=&quot;background-color: transparent; text-wrap-mode: nowrap; color: rgba(0, 0, 0, 0); font-family: monospace; font-size: 0px;&quot;&gt;%3CmxGraphModel%3E%3Croot%3E%3CmxCell%20id%3D%220%22%2F%3E%3CmxCell%20id%3D%221%22%20parent%3D%220%22%2F%3E%3CmxCell%20id%3D%222%22%20value%3D%22%2B%20age%3A%20int%22%20style%3D%22text%3BstrokeColor%3Dnone%3BfillColor%3Dnone%3Balign%3Dleft%3BverticalAlign%3Dtop%3BspacingLeft%3D4%3BspacingRight%3D4%3Boverflow%3Dhidden%3Brotatable%3D0%3Bpoints%3D%5B%5B0%2C0.5%5D%2C%5B1%2C0.5%5D%5D%3BportConstraint%3Deastwest%3BwhiteSpace%3Dwrap%3Bhtml%3D1%3B%22%20vertex%3D%221%22%20parent%3D%221%22%3E%3CmxGeometry%20x%3D%22-80%22%20y%3D%22518%22%20width%3D%22160%22%20height%3D%2226%22%20as%3D%22geometry%22%2F%3E%3C%2FmxCell%3E%3C%2Froot%3E%3C%2FmxGraphModel%3E&lt;/span&gt;&lt;/div&gt;+ profession: str&lt;div&gt;+ happiness: int&lt;/div&gt;&lt;div&gt;+ has_roof: bool&lt;/div&gt;" style="text;strokeColor=none;fillColor=none;align=left;verticalAlign=top;spacingLeft=4;spacingRight=4;overflow=hidden;rotatable=0;points=[[0,0.5],[1,0.5]];portConstraint=eastwest;whiteSpace=wrap;html=1;" parent="dsbZJy17aMEZbUW5SvcQ-77" vertex="1">
          <mxGeometry y="26" width="160" height="154" as="geometry" />
        </mxCell>
        <mxCell id="dsbZJy17aMEZbUW5SvcQ-80" value="&lt;br&gt;&lt;div&gt;+ gain_happiness()&lt;div&gt;+ lose_happiness()&lt;/div&gt;&lt;/div&gt;&lt;div&gt;- load_names()&lt;/div&gt;&lt;div&gt;- create_random()&lt;/div&gt;" style="text;strokeColor=default;fillColor=none;align=left;verticalAlign=top;spacingLeft=4;spacingRight=4;overflow=hidden;rotatable=0;points=[[0,0.5],[1,0.5]];portConstraint=eastwest;whiteSpace=wrap;html=1;" parent="dsbZJy17aMEZbUW5SvcQ-77" vertex="1">
          <mxGeometry y="180" width="160" height="120" as="geometry" />
        </mxCell>
        <mxCell id="dsbZJy17aMEZbUW5SvcQ-82" value="Water" style="swimlane;fontStyle=1;align=center;verticalAlign=top;childLayout=stackLayout;horizontal=1;startSize=26;horizontalStack=0;resizeParent=1;resizeParentMax=0;resizeLast=0;collapsible=1;marginBottom=0;whiteSpace=wrap;html=1;" parent="1" vertex="1">
          <mxGeometry x="-256" y="593" width="160" height="52" as="geometry" />
        </mxCell>
        <mxCell id="dsbZJy17aMEZbUW5SvcQ-83" value="+ collect()" style="text;strokeColor=none;fillColor=none;align=left;verticalAlign=top;spacingLeft=4;spacingRight=4;overflow=hidden;rotatable=0;points=[[0,0.5],[1,0.5]];portConstraint=eastwest;whiteSpace=wrap;html=1;fontStyle=0" parent="dsbZJy17aMEZbUW5SvcQ-82" vertex="1">
          <mxGeometry y="26" width="160" height="26" as="geometry" />
        </mxCell>
        <mxCell id="dsbZJy17aMEZbUW5SvcQ-84" value="Electricity" style="swimlane;fontStyle=1;align=center;verticalAlign=top;childLayout=stackLayout;horizontal=1;startSize=26;horizontalStack=0;resizeParent=1;resizeParentMax=0;resizeLast=0;collapsible=1;marginBottom=0;whiteSpace=wrap;html=1;" parent="1" vertex="1">
          <mxGeometry x="-76" y="593" width="160" height="52" as="geometry" />
        </mxCell>
        <mxCell id="dsbZJy17aMEZbUW5SvcQ-85" value="+ collect()" style="text;strokeColor=none;fillColor=none;align=left;verticalAlign=top;spacingLeft=4;spacingRight=4;overflow=hidden;rotatable=0;points=[[0,0.5],[1,0.5]];portConstraint=eastwest;whiteSpace=wrap;html=1;fontStyle=0" parent="dsbZJy17aMEZbUW5SvcQ-84" vertex="1">
          <mxGeometry y="26" width="160" height="26" as="geometry" />
        </mxCell>
        <mxCell id="dsbZJy17aMEZbUW5SvcQ-86" value="Food" style="swimlane;fontStyle=1;align=center;verticalAlign=top;childLayout=stackLayout;horizontal=1;startSize=26;horizontalStack=0;resizeParent=1;resizeParentMax=0;resizeLast=0;collapsible=1;marginBottom=0;whiteSpace=wrap;html=1;" parent="1" vertex="1">
          <mxGeometry x="104" y="592" width="160" height="52" as="geometry" />
        </mxCell>
        <mxCell id="dsbZJy17aMEZbUW5SvcQ-87" value="+ collect()" style="text;strokeColor=none;fillColor=none;align=left;verticalAlign=top;spacingLeft=4;spacingRight=4;overflow=hidden;rotatable=0;points=[[0,0.5],[1,0.5]];portConstraint=eastwest;whiteSpace=wrap;html=1;fontStyle=0" parent="dsbZJy17aMEZbUW5SvcQ-86" vertex="1">
          <mxGeometry y="26" width="160" height="26" as="geometry" />
        </mxCell>
        <mxCell id="dsbZJy17aMEZbUW5SvcQ-89" value="Menu" style="swimlane;fontStyle=1;align=center;verticalAlign=top;childLayout=stackLayout;horizontal=1;startSize=26;horizontalStack=0;resizeParent=1;resizeParentMax=0;resizeLast=0;collapsible=1;marginBottom=0;whiteSpace=wrap;html=1;" parent="1" vertex="1">
          <mxGeometry x="-656" y="113" width="160" height="314" as="geometry" />
        </mxCell>
        <mxCell id="dsbZJy17aMEZbUW5SvcQ-90" value="" style="line;strokeWidth=1;fillColor=none;align=left;verticalAlign=middle;spacingTop=-1;spacingLeft=3;spacingRight=3;rotatable=0;labelPosition=right;points=[];portConstraint=eastwest;strokeColor=inherit;" parent="dsbZJy17aMEZbUW5SvcQ-89" vertex="1">
          <mxGeometry y="26" width="160" height="8" as="geometry" />
        </mxCell>
        <mxCell id="dsbZJy17aMEZbUW5SvcQ-91" value="&lt;div&gt;&lt;span style=&quot;font-style: normal;&quot;&gt;+ create_city()&lt;/span&gt;&lt;/div&gt;&lt;div&gt;&lt;span style=&quot;font-style: normal;&quot;&gt;+add_building()&lt;/span&gt;&lt;/div&gt;&lt;div&gt;&lt;span style=&quot;font-style: normal;&quot;&gt;+assign_person()&lt;/span&gt;&lt;/div&gt;&lt;span style=&quot;font-style: normal;&quot;&gt;+ next_turn()&lt;/span&gt;&lt;div&gt;&lt;span style=&quot;font-style: normal;&quot;&gt;+display_log()&lt;/span&gt;&lt;/div&gt;&lt;div&gt;&lt;span style=&quot;font-style: normal;&quot;&gt;- show_options()&lt;/span&gt;&lt;/div&gt;&lt;div&gt;&lt;span style=&quot;font-style: normal;&quot;&gt;- ask_input()&lt;/span&gt;&lt;/div&gt;&lt;div&gt;&lt;span style=&quot;font-style: normal;&quot;&gt;- show()&lt;/span&gt;&lt;/div&gt;" style="text;strokeColor=none;fillColor=none;align=left;verticalAlign=top;spacingLeft=4;spacingRight=4;overflow=hidden;rotatable=0;points=[[0,0.5],[1,0.5]];portConstraint=eastwest;whiteSpace=wrap;html=1;fontStyle=2" parent="dsbZJy17aMEZbUW5SvcQ-89" vertex="1">
          <mxGeometry y="34" width="160" height="280" as="geometry" />
        </mxCell>
        <mxCell id="dsbZJy17aMEZbUW5SvcQ-92" value="Extends" style="endArrow=block;endSize=16;endFill=0;html=1;rounded=0;exitX=0.5;exitY=0;exitDx=0;exitDy=0;entryX=1;entryY=0.5;entryDx=0;entryDy=0;" parent="1" source="dsbZJy17aMEZbUW5SvcQ-86" edge="1">
          <mxGeometry width="160" relative="1" as="geometry">
            <mxPoint x="109" y="553" as="sourcePoint" />
            <mxPoint x="4" y="459" as="targetPoint" />
          </mxGeometry>
        </mxCell>
        <mxCell id="dsbZJy17aMEZbUW5SvcQ-93" value="Extends" style="endArrow=block;endSize=16;endFill=0;html=1;rounded=0;exitX=0.5;exitY=0;exitDx=0;exitDy=0;entryX=0.75;entryY=1;entryDx=0;entryDy=0;" parent="1" edge="1">
          <mxGeometry width="160" relative="1" as="geometry">
            <mxPoint x="4" y="592" as="sourcePoint" />
            <mxPoint x="-43.5" y="525" as="targetPoint" />
          </mxGeometry>
        </mxCell>
        <mxCell id="dsbZJy17aMEZbUW5SvcQ-94" value="Extends" style="endArrow=block;endSize=16;endFill=0;html=1;rounded=0;exitX=0.5;exitY=0;exitDx=0;exitDy=0;entryX=1;entryY=0.75;entryDx=0;entryDy=0;" parent="1" target="dsbZJy17aMEZbUW5SvcQ-98" edge="1">
          <mxGeometry width="160" relative="1" as="geometry">
            <mxPoint x="184" y="313" as="sourcePoint" />
            <mxPoint x="4.949999999999818" y="239.98000000000002" as="targetPoint" />
          </mxGeometry>
        </mxCell>
        <mxCell id="dsbZJy17aMEZbUW5SvcQ-95" value="Extends" style="endArrow=block;endSize=16;endFill=0;html=1;rounded=0;exitX=0.5;exitY=0;exitDx=0;exitDy=0;entryX=0.75;entryY=1;entryDx=0;entryDy=0;" parent="1" target="dsbZJy17aMEZbUW5SvcQ-98" edge="1">
          <mxGeometry width="160" relative="1" as="geometry">
            <mxPoint x="4" y="313" as="sourcePoint" />
            <mxPoint x="-55.090000000000146" y="252.01999999999998" as="targetPoint" />
          </mxGeometry>
        </mxCell>
        <mxCell id="dsbZJy17aMEZbUW5SvcQ-96" value="Extends" style="endArrow=block;endSize=16;endFill=0;html=1;rounded=0;exitX=0.5;exitY=0;exitDx=0;exitDy=0;entryX=0.25;entryY=1;entryDx=0;entryDy=0;" parent="1" source="dsbZJy17aMEZbUW5SvcQ-71" target="dsbZJy17aMEZbUW5SvcQ-98" edge="1">
          <mxGeometry width="160" relative="1" as="geometry">
            <mxPoint x="104" y="382" as="sourcePoint" />
            <mxPoint x="-131.08999999999992" y="253" as="targetPoint" />
          </mxGeometry>
        </mxCell>
        <mxCell id="dsbZJy17aMEZbUW5SvcQ-98" value="&lt;p style=&quot;margin:0px;margin-top:4px;text-align:center;&quot;&gt;&lt;i&gt;&amp;lt;&amp;lt;Abstract&amp;gt;&amp;gt;&lt;/i&gt;&lt;br&gt;&lt;b&gt;Building&lt;/b&gt;&lt;/p&gt;&lt;hr size=&quot;1&quot; style=&quot;border-style:solid;&quot;&gt;&lt;p style=&quot;margin: 0px 0px 0px 4px;&quot;&gt;+ name: str&lt;br&gt;+ capacity: int&lt;/p&gt;&lt;p style=&quot;margin: 0px 0px 0px 4px;&quot;&gt;+ integrity: int&lt;/p&gt;&lt;p style=&quot;margin: 0px 0px 0px 4px;&quot;&gt;+ type: BuildingType&lt;/p&gt;&lt;p style=&quot;margin:0px;margin-left:4px;&quot;&gt;&lt;br&gt;&lt;/p&gt;&lt;hr size=&quot;1&quot; style=&quot;border-style:solid;&quot;&gt;&lt;p style=&quot;margin:0px;margin-left:4px;&quot;&gt;+building_damage()&lt;/p&gt;&lt;p style=&quot;margin:0px;margin-left:4px;&quot;&gt;+building_repair()&lt;/p&gt;" style="verticalAlign=top;align=left;overflow=fill;html=1;whiteSpace=wrap;" parent="1" vertex="1">
          <mxGeometry x="-186" y="113" width="190" height="168" as="geometry" />
        </mxCell>
        <mxCell id="dsbZJy17aMEZbUW5SvcQ-99" value="MenuBuilder" style="swimlane;fontStyle=1;align=center;verticalAlign=top;childLayout=stackLayout;horizontal=1;startSize=26;horizontalStack=0;resizeParent=1;resizeParentMax=0;resizeLast=0;collapsible=1;marginBottom=0;whiteSpace=wrap;html=1;" parent="1" vertex="1">
          <mxGeometry x="-846" y="113" width="160" height="120" as="geometry" />
        </mxCell>
        <mxCell id="dsbZJy17aMEZbUW5SvcQ-100" value="" style="line;strokeWidth=1;fillColor=none;align=left;verticalAlign=middle;spacingTop=-1;spacingLeft=3;spacingRight=3;rotatable=0;labelPosition=right;points=[];portConstraint=eastwest;strokeColor=inherit;" parent="dsbZJy17aMEZbUW5SvcQ-99" vertex="1">
          <mxGeometry y="26" width="160" height="8" as="geometry" />
        </mxCell>
        <mxCell id="dsbZJy17aMEZbUW5SvcQ-101" value="&lt;div&gt;&lt;span style=&quot;font-style: normal;&quot;&gt;+ add_option()&lt;/span&gt;&lt;/div&gt;&lt;div&gt;&lt;span style=&quot;font-style: normal;&quot;&gt;+ build()&lt;/span&gt;&lt;/div&gt;" style="text;strokeColor=none;fillColor=none;align=left;verticalAlign=top;spacingLeft=4;spacingRight=4;overflow=hidden;rotatable=0;points=[[0,0.5],[1,0.5]];portConstraint=eastwest;whiteSpace=wrap;html=1;fontStyle=2" parent="dsbZJy17aMEZbUW5SvcQ-99" vertex="1">
          <mxGeometry y="34" width="160" height="86" as="geometry" />
        </mxCell>
        <mxCell id="dsbZJy17aMEZbUW5SvcQ-102" value="Logger" style="swimlane;fontStyle=1;align=center;verticalAlign=top;childLayout=stackLayout;horizontal=1;startSize=26;horizontalStack=0;resizeParent=1;resizeParentMax=0;resizeLast=0;collapsible=1;marginBottom=0;whiteSpace=wrap;html=1;" parent="1" vertex="1">
          <mxGeometry x="-846" y="245" width="160" height="180" as="geometry" />
        </mxCell>
        <mxCell id="dsbZJy17aMEZbUW5SvcQ-103" value="" style="line;strokeWidth=1;fillColor=none;align=left;verticalAlign=middle;spacingTop=-1;spacingLeft=3;spacingRight=3;rotatable=0;labelPosition=right;points=[];portConstraint=eastwest;strokeColor=inherit;" parent="dsbZJy17aMEZbUW5SvcQ-102" vertex="1">
          <mxGeometry y="26" width="160" height="8" as="geometry" />
        </mxCell>
        <mxCell id="dsbZJy17aMEZbUW5SvcQ-104" value="&lt;span style=&quot;font-style: normal;&quot;&gt;- initialisation()&lt;/span&gt;&lt;div&gt;&lt;span style=&quot;font-style: normal;&quot;&gt;+ debug()&lt;/span&gt;&lt;/div&gt;&lt;div&gt;&lt;span style=&quot;font-style: normal;&quot;&gt;+info()&lt;/span&gt;&lt;/div&gt;&lt;div&gt;&lt;span style=&quot;font-style: normal;&quot;&gt;+ warning()&lt;/span&gt;&lt;/div&gt;&lt;div&gt;&lt;span style=&quot;font-style: normal;&quot;&gt;+ error()&lt;/span&gt;&lt;/div&gt;&lt;div&gt;&lt;span style=&quot;font-style: normal;&quot;&gt;+ critical()&lt;/span&gt;&lt;/div&gt;&lt;div&gt;&lt;span style=&quot;font-style: normal;&quot;&gt;+ clear()&lt;/span&gt;&lt;/div&gt;" style="text;strokeColor=none;fillColor=none;align=left;verticalAlign=top;spacingLeft=4;spacingRight=4;overflow=hidden;rotatable=0;points=[[0,0.5],[1,0.5]];portConstraint=eastwest;whiteSpace=wrap;html=1;fontStyle=2" parent="dsbZJy17aMEZbUW5SvcQ-102" vertex="1">
          <mxGeometry y="34" width="160" height="146" as="geometry" />
        </mxCell>
        <mxCell id="dsbZJy17aMEZbUW5SvcQ-105" value="&lt;p style=&quot;margin:0px;margin-top:4px;text-align:center;&quot;&gt;&lt;i&gt;&amp;lt;&amp;lt;Enum&amp;gt;&amp;gt;&lt;/i&gt;&lt;br&gt;&lt;b&gt;Event&lt;/b&gt;&lt;/p&gt;&lt;hr size=&quot;1&quot; style=&quot;border-style:solid;&quot;&gt;&lt;p style=&quot;margin: 0px 0px 0px 4px;&quot;&gt;+ fire&lt;br&gt;+ floods&lt;/p&gt;&lt;p style=&quot;margin: 0px 0px 0px 4px;&quot;&gt;+ strike&lt;/p&gt;&lt;p style=&quot;margin: 0px 0px 0px 4px;&quot;&gt;+ local_celebration&lt;/p&gt;&lt;p style=&quot;margin:0px;margin-left:4px;&quot;&gt;&lt;br&gt;&lt;/p&gt;&lt;hr size=&quot;1&quot; style=&quot;border-style:solid;&quot;&gt;&lt;p style=&quot;margin:0px;margin-left:4px;&quot;&gt;+ happiness()&lt;/p&gt;&lt;p style=&quot;margin:0px;margin-left:4px;&quot;&gt;+ damages()&lt;/p&gt;&lt;p style=&quot;margin:0px;margin-left:4px;&quot;&gt;+ getRandomEvent()&lt;/p&gt;" style="verticalAlign=top;align=left;overflow=fill;html=1;whiteSpace=wrap;" parent="1" vertex="1">
          <mxGeometry x="-846" y="455" width="160" height="260" as="geometry" />
        </mxCell>
        <mxCell id="dsbZJy17aMEZbUW5SvcQ-107" value="EventImpact" style="swimlane;fontStyle=1;align=center;verticalAlign=top;childLayout=stackLayout;horizontal=1;startSize=26;horizontalStack=0;resizeParent=1;resizeParentMax=0;resizeLast=0;collapsible=1;marginBottom=0;whiteSpace=wrap;html=1;" parent="1" vertex="1">
          <mxGeometry x="-656" y="455" width="160" height="260" as="geometry" />
        </mxCell>
        <mxCell id="dsbZJy17aMEZbUW5SvcQ-108" value="+ happiness: int&lt;div&gt;+ damages: int&lt;/div&gt;" style="text;strokeColor=none;fillColor=none;align=left;verticalAlign=top;spacingLeft=4;spacingRight=4;overflow=hidden;rotatable=0;points=[[0,0.5],[1,0.5]];portConstraint=eastwest;whiteSpace=wrap;html=1;" parent="dsbZJy17aMEZbUW5SvcQ-107" vertex="1">
          <mxGeometry y="26" width="160" height="84" as="geometry" />
        </mxCell>
        <mxCell id="dsbZJy17aMEZbUW5SvcQ-109" value="" style="line;strokeWidth=1;fillColor=none;align=left;verticalAlign=middle;spacingTop=-1;spacingLeft=3;spacingRight=3;rotatable=0;labelPosition=right;points=[];portConstraint=eastwest;strokeColor=inherit;" parent="dsbZJy17aMEZbUW5SvcQ-107" vertex="1">
          <mxGeometry y="110" width="160" height="8" as="geometry" />
        </mxCell>
        <mxCell id="dsbZJy17aMEZbUW5SvcQ-110" value="&lt;div&gt;+ happiness()&lt;/div&gt;&lt;div&gt;&lt;span style=&quot;background-color: transparent; color: light-dark(rgb(0, 0, 0), rgb(255, 255, 255));&quot;&gt;+ damages()&lt;/span&gt;&lt;/div&gt;" style="text;strokeColor=none;fillColor=none;align=left;verticalAlign=top;spacingLeft=4;spacingRight=4;overflow=hidden;rotatable=0;points=[[0,0.5],[1,0.5]];portConstraint=eastwest;whiteSpace=wrap;html=1;" parent="dsbZJy17aMEZbUW5SvcQ-107" vertex="1">
          <mxGeometry y="118" width="160" height="142" as="geometry" />
        </mxCell>
        <mxCell id="dsbZJy17aMEZbUW5SvcQ-111" value="&lt;p style=&quot;margin:0px;margin-top:4px;text-align:center;&quot;&gt;&lt;i&gt;&amp;lt;&amp;lt;Abstract&amp;gt;&amp;gt;&lt;/i&gt;&lt;br&gt;&lt;b&gt;Resource&lt;/b&gt;&lt;/p&gt;&lt;hr size=&quot;1&quot; style=&quot;border-style:solid;&quot;&gt;&lt;p style=&quot;margin: 0px 0px 0px 4px;&quot;&gt;&lt;span style=&quot;color: light-dark(rgb(0, 0, 0), rgb(255, 255, 255)); background-color: transparent;&quot;&gt;+ max_production(int)&lt;/span&gt;&lt;span style=&quot;text-wrap-mode: nowrap; background-color: transparent; color: light-dark(rgba(0, 0, 0, 0), rgb(237, 237, 237)); font-family: monospace; font-size: 0px;&quot;&gt;%3CmxGraphModel%3E%3Croot%3E%3CmxCell%20id%3D%220%22%2F%3E%3CmxCell%20id%3D%221%22%20parent%3D%220%22%2F%3E%3CmxCell%20id%3D%222%22%20value%3D%22%22%20style%3D%22line%3BstrokeWidth%3D1%3BfillColor%3Dnone%3Balign%3Dleft%3BverticalAlign%3Dmiddle%3BspacingTop%3D-1%3BspacingLeft%3D3%3BspacingRight%3D3%3Brotatable%3D0%3BlabelPosition%3Dright%3Bpoints%3D%5B%5D%3BportConstraint%3Deastwest%3BstrokeColor%3Dinherit%3B%22%20vertex%3D%221%22%20parent%3D%221%22%3E%3CmxGeometry%20x%3D%22-260%22%20y%3D%22258%22%20width%3D%22160%22%20height%3D%228%22%20as%3D%22geometry%22%2F%3E%3C%2FmxCell%3E%3C%2Froot%3E%3C%2FmxGraphModel%3E&lt;/span&gt;&lt;/p&gt;&lt;hr size=&quot;1&quot; style=&quot;border-style:solid;&quot;&gt;&lt;p style=&quot;margin:0px;margin-left:4px;&quot;&gt;+ collect()&lt;/p&gt;" style="verticalAlign=top;align=left;overflow=fill;html=1;whiteSpace=wrap;" parent="1" vertex="1">
          <mxGeometry x="-186" y="385" width="190" height="140" as="geometry" />
        </mxCell>
      </root>
    </mxGraphModel>
  </diagram>
</mxfile>
